<svg width="24" height="24" viewBox="0 0 24 24" fill="none" xmlns="http://www.w3.org/2000/svg">
<rect width="24" height="24" rx="5" fill="#2F80ED"/>
<path d="M13.5613 17.1136C13.7849 16.5128 14.2933 16.0909 14.8846 16.0909C15.476 16.0909 15.9844 16.5128 16.2079 17.1136H18.9231C19.2404 17.1136 19.5 17.4205 19.5 17.7955C19.5 18.1705 19.2404 18.4773 18.9231 18.4773H16.2079C15.9844 19.0781 15.476 19.5 14.8846 19.5C14.2933 19.5 13.7849 19.0781 13.5613 18.4773H5.07692C4.75962 18.4773 4.5 18.1705 4.5 17.7955C4.5 17.4205 4.75962 17.1136 5.07692 17.1136H13.5613ZM7.79207 11.3182C8.01563 10.7173 8.52404 10.2955 9.11538 10.2955C9.70673 10.2955 10.2151 10.7173 10.4387 11.3182H18.9231C19.2404 11.3182 19.5 11.625 19.5 12C19.5 12.375 19.2404 12.6818 18.9231 12.6818H10.4387C10.2151 13.2827 9.70673 13.7045 9.11538 13.7045C8.52404 13.7045 8.01563 13.2827 7.79207 12.6818H5.07692C4.75962 12.6818 4.5 12.375 4.5 12C4.5 11.625 4.75962 11.3182 5.07692 11.3182H7.79207ZM13.5613 5.52273C13.7849 4.92188 14.2933 4.5 14.8846 4.5C15.476 4.5 15.9844 4.92188 16.2079 5.52273H18.9231C19.2404 5.52273 19.5 5.82955 19.5 6.20455C19.5 6.57955 19.2404 6.88636 18.9231 6.88636H16.2079C15.9844 7.48722 15.476 7.90909 14.8846 7.90909C14.2933 7.90909 13.7849 7.48722 13.5613 6.88636H5.07692C4.75962 6.88636 4.5 6.57955 4.5 6.20455C4.5 5.82955 4.75962 5.52273 5.07692 5.52273H13.5613Z" fill="white"/>
</svg>
